<svg width="80" height="74" viewBox="0 0 80 74" fill="none" xmlns="http://www.w3.org/2000/svg">
<path d="M76.7723 4.89062H56.6789C56.1345 2.21937 53.7672 0.203125 50.9375 0.203125H29.0625C26.2328 0.203125 23.8655 2.21937 23.3211 4.89062H3.22766C1.44797 4.89062 0 6.33844 0 8.11781V58.6842C0 60.4637 1.44797 61.9114 3.22766 61.9114H31.3548L29.7739 66.7686H26.4911C24.2473 66.7686 22.4217 68.5939 22.4217 70.8375C22.4217 72.4705 23.7505 73.7991 25.3836 73.7991H54.6161C56.2492 73.7991 57.578 72.4706 57.578 70.8375C57.578 68.5939 55.7523 66.7686 53.5086 66.7686H50.2258L48.6448 61.9114H76.772C78.5519 61.9114 79.9997 60.4636 79.9997 58.6842V8.11781C80 6.33844 78.552 4.89062 76.7723 4.89062ZM44.6844 2.54688H50.9375C52.8759 2.54688 54.4531 4.12391 54.4531 6.0625C54.4531 8.00109 52.8759 9.57812 50.9375 9.57812H44.6844C45.4217 8.59812 45.8594 7.38062 45.8594 6.0625C45.8594 4.74438 45.4217 3.52688 44.6844 2.54688ZM40 2.54688C41.9384 2.54688 43.5156 4.12391 43.5156 6.0625C43.5156 8.00109 41.9384 9.57812 40 9.57812C38.0616 9.57812 36.4844 8.00109 36.4844 6.0625C36.4844 4.12391 38.0616 2.54688 40 2.54688ZM29.0625 2.54688H35.3156C34.5783 3.52688 34.1406 4.74438 34.1406 6.0625C34.1406 7.38062 34.5783 8.59812 35.3156 9.57812H29.0625C27.1241 9.57812 25.5469 8.00109 25.5469 6.0625C25.5469 4.12391 27.1241 2.54688 29.0625 2.54688ZM53.5088 69.1125C54.4603 69.1125 55.2344 69.8864 55.2344 70.8377C55.2344 71.1783 54.9572 71.4555 54.6162 71.4555H25.3837C25.0428 71.4555 24.7656 71.1784 24.7656 70.8377C24.7656 69.8864 25.5397 69.1125 26.4913 69.1125H34.7352C35.3825 69.1125 35.907 68.5878 35.907 67.9406C35.907 67.2934 35.3825 66.7687 34.7352 66.7687H32.2389L33.8198 61.9116H46.1803L47.7612 66.7687H40.143C39.4956 66.7687 38.9711 67.2934 38.9711 67.9406C38.9711 68.5878 39.4956 69.1125 40.143 69.1125H53.5088ZM77.6562 14.2639H23.5938C22.9464 14.2639 22.4219 14.7886 22.4219 15.4358C22.4219 16.083 22.9464 16.6077 23.5938 16.6077H77.6562V50.1945H68.7891C68.1417 50.1945 67.6172 50.7192 67.6172 51.3664C67.6172 52.0136 68.1417 52.5383 68.7891 52.5383H77.6562V58.6842C77.6562 59.1714 77.2597 59.5677 76.7723 59.5677H3.22766C2.74031 59.5677 2.34375 59.1712 2.34375 58.6842V52.5383H63.3973C64.0447 52.5383 64.5692 52.0136 64.5692 51.3664C64.5692 50.7192 64.0447 50.1945 63.3973 50.1945H58.9189C58.063 47.7247 55.9762 45.8267 53.3834 45.2402C53.375 45.2381 53.3666 45.2364 53.358 45.2347L44.4739 43.4325C44.3791 42.7075 44.3606 41.9866 44.42 41.2253C47.5339 38.6213 49.0505 36.3141 49.0505 34.1823C49.0505 33.9513 49.0411 33.7236 49.0211 33.4909C48.9711 32.9809 48.9428 30.6295 48.9527 27.7725C48.9606 25.4447 48.0595 23.2541 46.4158 21.6042C44.7705 19.953 42.5805 19.0433 40.2494 19.043C40.2489 19.043 40.2484 19.043 40.248 19.043C37.9167 19.043 35.7264 19.9523 34.0808 21.6034C32.4364 23.2533 31.5352 25.4442 31.5431 27.7727C31.553 30.6313 31.5247 32.9847 31.4736 33.5075C31.4548 33.7198 31.4453 33.9469 31.4453 34.1822C31.4453 36.3111 32.9572 38.6144 36.0591 41.2109C36.1167 41.9556 36.0959 42.6603 35.9964 43.3944L26.9528 45.2341C26.9444 45.2358 26.9361 45.2375 26.9277 45.2395C24.3352 45.8266 22.2489 47.7248 21.3934 50.1945H2.34375V16.6077H18.2302C18.8775 16.6077 19.402 16.083 19.402 15.4358C19.402 14.7886 18.8775 14.2639 18.2302 14.2639H2.34375V8.11781C2.34375 7.63063 2.74031 7.23437 3.22766 7.23437H23.3209C23.8653 9.90562 26.2327 11.9219 29.0623 11.9219H50.9373C53.767 11.9219 56.1344 9.90562 56.6787 7.23437H76.772C77.2594 7.23437 77.6559 7.63078 77.6559 8.11781V14.2639H77.6562ZM33.8869 27.7645C33.8811 26.0638 34.5395 24.4633 35.7408 23.258C36.9436 22.0513 38.5441 21.3867 40.248 21.3867H40.2491C41.9525 21.387 43.5531 22.0517 44.7556 23.2586C45.9566 24.4638 46.6147 26.0641 46.6089 27.7644C46.6006 30.1677 46.6173 32.9942 46.6873 33.7048C46.7002 33.8566 46.7067 34.0172 46.7067 34.1823C46.7067 35.5908 45.2275 37.5631 42.5394 39.7383C41.8967 40.2608 41.087 40.5484 40.2537 40.5484C40.2512 40.5484 40.2487 40.5484 40.2462 40.5484C39.4069 40.5487 38.6 40.2616 37.952 39.7344C35.2673 37.5625 33.7889 35.5906 33.7889 34.1823C33.7889 34.0153 33.7953 33.8573 33.8069 33.7248C33.8784 32.9977 33.8952 30.1692 33.8869 27.7645ZM42.1945 44.0598C42.1366 44.1223 42.078 44.1852 42.0189 44.2478C41.5064 44.7939 40.882 45.0944 40.2537 45.0944C40.2505 45.0944 40.247 45.0944 40.2436 45.0944C39.6205 45.0944 38.9947 44.7931 38.4791 44.2433C38.41 44.17 38.3416 44.0966 38.2739 44.0233C38.3498 43.5455 38.3972 43.0756 38.4192 42.6056C39.0036 42.7933 39.6164 42.892 40.235 42.892H40.2584C40.8703 42.892 41.4758 42.7961 42.0531 42.6137C42.0727 43.0972 42.1186 43.5764 42.1945 44.0598ZM36.5995 45.6634C36.6569 45.7253 36.7136 45.7873 36.7717 45.8487C37.733 46.8739 38.9655 47.438 40.2373 47.438H40.2602C41.5366 47.438 42.7678 46.8748 43.7261 45.8536C43.7739 45.803 43.8206 45.7519 43.868 45.7009L52.8788 47.5289C54.3925 47.8752 55.6564 48.8659 56.3692 50.1945H23.9431C24.6558 48.8656 25.9195 47.8745 27.4334 47.5281L36.5995 45.6634Z" fill="#086CF9"/>
</svg>
