<svg width="48" height="48" viewBox="0 0 48 48" fill="none" xmlns="http://www.w3.org/2000/svg">
<rect width="48" height="48" rx="4" fill="white"/>
<path d="M28.6359 14.8371L26.3215 14.8333C23.7213 14.8333 22.041 16.6042 22.041 19.3451V21.4254H19.714C19.5129 21.4254 19.3501 21.5928 19.3501 21.7994V24.8135C19.3501 25.02 19.5131 25.1873 19.714 25.1873H22.041V32.7928C22.041 32.9993 22.2039 33.1666 22.4049 33.1666H25.441C25.6421 33.1666 25.8049 32.9991 25.8049 32.7928V25.1873H28.5258C28.7268 25.1873 28.8897 25.02 28.8897 24.8135L28.8908 21.7994C28.8908 21.7002 28.8524 21.6052 28.7842 21.535C28.7161 21.4649 28.6232 21.4254 28.5267 21.4254H25.8049V19.6619C25.8049 18.8143 26.0016 18.384 27.0764 18.384L28.6355 18.3835C28.8364 18.3835 28.9992 18.216 28.9992 18.0096V15.2109C28.9992 15.0047 28.8366 14.8374 28.6359 14.8371Z" fill="#086CF9"/>
</svg>
