<svg width="48" height="48" viewBox="0 0 48 48" fill="none" xmlns="http://www.w3.org/2000/svg">
<rect width="48" height="48" rx="4" fill="white"/>
<path d="M32.75 18.8104C32.1059 19.0836 31.4148 19.269 30.6887 19.3517C31.4301 18.9266 31.9976 18.2523 32.2666 17.4512C31.5711 17.8449 30.8035 18.1308 29.9855 18.2858C29.3305 17.6167 28.3988 17.2 27.3653 17.2C25.3827 17.2 23.7752 18.7392 23.7752 20.6365C23.7752 20.9056 23.8069 21.1684 23.8682 21.4197C20.885 21.2763 18.2397 19.9077 16.4693 17.8282C16.1598 18.335 15.9837 18.9255 15.9837 19.5559C15.9837 20.7485 16.618 21.8009 17.5803 22.4165C16.992 22.3977 16.4387 22.2427 15.9542 21.9851V22.0281C15.9542 23.6929 17.1921 25.0824 18.8335 25.3986C18.5328 25.4761 18.2157 25.5191 17.8876 25.5191C17.6558 25.5191 17.4316 25.4971 17.2118 25.4552C17.6689 26.8216 18.9943 27.8153 20.5646 27.8426C19.3366 28.764 17.7881 29.3116 16.1062 29.3116C15.8165 29.3116 15.531 29.2949 15.25 29.2645C16.8389 30.2414 18.7253 30.8111 20.7527 30.8111C27.3566 30.8111 30.9665 25.5735 30.9665 21.0313L30.9544 20.5863C31.6597 20.1046 32.2699 19.4993 32.75 18.8104Z" fill="#086CF9"/>
</svg>
