<svg width="48" height="48" viewBox="0 0 48 48" fill="none" xmlns="http://www.w3.org/2000/svg">
<rect width="48" height="48" rx="4" fill="white"/>
<path fill-rule="evenodd" clip-rule="evenodd" d="M15.6667 23.9998C15.6667 21.3589 15.6667 20.0384 16.1108 19.0014C16.6672 17.7022 17.7024 16.667 19.0017 16.1106C20.0387 15.6665 21.3591 15.6665 24.0001 15.6665C26.641 15.6665 27.9615 15.6665 28.9985 16.1106C30.2978 16.667 31.333 17.7022 31.8893 19.0014C32.3334 20.0384 32.3334 21.3589 32.3334 23.9998C32.3334 26.6408 32.3334 27.9613 31.8893 28.9982C31.333 30.2975 30.2978 31.3327 28.9985 31.8891C27.9615 32.3332 26.641 32.3332 24.0001 32.3332C21.3591 32.3332 20.0387 32.3332 19.0017 31.8891C17.7024 31.3327 16.6672 30.2975 16.1108 28.9982C15.6667 27.9613 15.6667 26.6408 15.6667 23.9998ZM24.0001 19.5883C21.5637 19.5883 19.5883 21.5636 19.5883 24C19.5883 26.4364 21.5637 28.4118 24.0001 28.4118C26.4365 28.4118 28.4119 26.4364 28.4119 24C28.4119 21.5636 26.4365 19.5883 24.0001 19.5883ZM24.0001 26.7574C22.4803 26.7574 21.2428 25.5199 21.2428 24C21.2428 22.4791 22.4803 21.2427 24.0001 21.2427C25.52 21.2427 26.7575 22.4791 26.7575 24C26.7575 25.5199 25.52 26.7574 24.0001 26.7574ZM29.3306 19.257C29.3306 19.5817 29.0674 19.8449 28.7427 19.8449C28.418 19.8449 28.1548 19.5817 28.1548 19.257C28.1548 18.9323 28.418 18.6691 28.7427 18.6691C29.0674 18.6691 29.3306 18.9323 29.3306 19.257Z" fill="#086CF9"/>
</svg>
